<?xml version="1.0" encoding="UTF-8" standalone="no"?>
<svg
   xmlns:dc="http://purl.org/dc/elements/1.1/"
   xmlns:cc="http://creativecommons.org/ns#"
   xmlns:rdf="http://www.w3.org/1999/02/22-rdf-syntax-ns#"
   xmlns:svg="http://www.w3.org/2000/svg"
   xmlns="http://www.w3.org/2000/svg"
   xmlns:xlink="http://www.w3.org/1999/xlink"
   xmlns:sodipodi="http://sodipodi.sourceforge.net/DTD/sodipodi-0.dtd"
   xmlns:inkscape="http://www.inkscape.org/namespaces/inkscape"
   width="626.4pt"
   height="806.4pt"
   viewBox="0 0 626.4 806.4"
   version="1.1"
   id="svg273"
   sodipodi:docname="接触任务几何与误差分解_矢量.svg"
   inkscape:version="0.92.5 (2060ec1f9f, 2020-04-08)">
  <sodipodi:namedview
     pagecolor="#ffffff"
     bordercolor="#666666"
     borderopacity="1"
     objecttolerance="10"
     gridtolerance="10"
     guidetolerance="10"
     inkscape:pageopacity="0"
     inkscape:pageshadow="2"
     inkscape:window-width="2488"
     inkscape:window-height="1536"
     id="namedview275"
     showgrid="false"
     inkscape:snap-global="false"
     inkscape:zoom="1.2146577"
     inkscape:cx="417.60002"
     inkscape:cy="537.60002"
     inkscape:window-x="72"
     inkscape:window-y="27"
     inkscape:window-maximized="1"
     inkscape:current-layer="axes_1" />
  <metadata
     id="metadata2">
    <rdf:RDF>
      <cc:Work>
        <dc:type
           rdf:resource="http://purl.org/dc/dcmitype/StillImage" />
        <dc:date>2026-06-30T17:57:58.890216</dc:date>
        <dc:format>image/svg+xml</dc:format>
        <dc:creator>
          <cc:Agent>
            <dc:title>Matplotlib v3.10.8, https://matplotlib.org/</dc:title>
          </cc:Agent>
        </dc:creator>
        <dc:title></dc:title>
      </cc:Work>
    </rdf:RDF>
  </metadata>
  <defs
     id="defs6">
    <linearGradient
       inkscape:collect="always"
       id="linearGradient4819">
      <stop
         style="stop-color:#1565c0;stop-opacity:1;"
         offset="0"
         id="stop4815" />
      <stop
         style="stop-color:#1565c0;stop-opacity:0;"
         offset="1"
         id="stop4817" />
    </linearGradient>
    <style
       type="text/css"
       id="style4">*{stroke-linejoin: round; stroke-linecap: butt}</style>
    <radialGradient
       inkscape:collect="always"
       xlink:href="#linearGradient4819"
       id="radialGradient4823"
       cx="319.20615"
       cy="251.51132"
       fx="319.20615"
       fy="251.51132"
       r="5.8687501"
       gradientTransform="matrix(1,0,0,1.1741214,0,-43.793505)"
       gradientUnits="userSpaceOnUse" />
  </defs>
  <g
     id="figure_1">
    <g
       id="patch_1">
      <path
         d="M 0 806.4  L 626.4 806.4  L 626.4 0  L 0 0  z "
         style="fill: #ffffff"
         id="path8" />
    </g>
    <g
       style="stroke-linecap:butt;stroke-linejoin:round"
       id="line2d_22"
       transform="translate(0,-1.4999999)">
      <path
         d="m 300.96,518.23972 1.54242,0.0356 1.54272,0.0252 1.54302,0.0148 1.54332,0.004 1.54361,-0.006 1.5439,-0.0161 1.5442,-0.0262 1.54449,-0.0363 1.54477,-0.0462 1.54506,-0.056 1.54533,-0.0657 1.54561,-0.0753 1.54588,-0.0846 1.54614,-0.0938 1.5464,-0.10286 1.54666,-0.11166 1.5469,-0.12025 1.54714,-0.12861 1.54738,-0.13674 1.5476,-0.14461 1.54782,-0.15222 1.54803,-0.15954 1.54824,-0.16658 1.54843,-0.17333 1.54861,-0.17977 1.54879,-0.18588 1.54896,-0.19166 1.54911,-0.19712 1.54926,-0.20221 1.5494,-0.20695 1.54952,-0.21134 1.54964,-0.21533 1.54974,-0.21896 1.54983,-0.22218 1.54992,-0.22503 1.54998,-0.22746 1.55005,-0.22949 1.55009,-0.2311 1.55012,-0.23229 1.55015,-0.23306 1.55016,-0.2334 1.55015,-0.23331 1.55014,-0.23278 1.55011,-0.23182 1.55007,-0.23042 1.55002,-0.22856 1.54995,-0.22628 1.54987,-0.22354 1.54978,-0.22036 1.54968,-0.21673 1.54956,-0.21266 1.54943,-0.20815 1.54929,-0.20319 1.54913,-0.19779 1.54897,-0.19196 1.54878,-0.18568 1.54859,-0.17899 1.54839,-0.17186 1.54817,-0.16431 1.54794,-0.15635 1.5477,-0.14796 1.54745,-0.13918 1.54718,-0.12999 1.5469,-0.12042 1.54663,-0.11045 1.54632,-0.10011 1.54601,-0.0894 1.5457,-0.0783 1.54537,-0.0669 1.54503,-0.0551 1.54468,-0.043 1.54432,-0.0306 1.54396,-0.0179 1.54358,-0.005 1.5432,0.008 1.54281,0.0221 1.54242,0.0359 1.542,0.05 1.54159,0.0644 1.54117,0.0789 1.54075,0.0937 1.54032,0.10869 1.53988,0.12385 1.53944,0.13917 1.539,0.15466 1.53854,0.17027 1.5381,0.18602 1.53763,0.20186 1.53718,0.2178 1.53672,0.23381 1.53626,0.24988 1.53579,0.266 1.53533,0.28213 1.53486,0.29828 1.5344,0.31442 1.53394,0.33054 1.53347,0.3466 1.53302,0.36262 1.53255,0.37856 1.5321,0.39439 1.53165,0.41013 1.5312,0.42572 1.53075,0.44119 1.53032,0.45647 1.52987,0.47159 1.52946,0.48651 1.52902,0.5012 1.52861,0.51568 1.52821,0.52989 1.5278,0.54385 1.52741,0.55751 1.52702,0.57089 1.52665,0.58395 1.52628,0.59667 1.52592,0.60905 1.52558,0.62107 1.52525,0.63269 1.52492,0.64395 1.52461,0.65477"
         clip-path="url(#pbc7b771851)"
         style="fill:none;stroke:#1565c0;stroke-width:3;stroke-linecap:square;stroke-linejoin:round"
         id="path77"
         inkscape:connector-curvature="0" />
    </g>
    <g
       id="axes_1">
      <g
         id="patch_2">
        <path
           d="M 19.44 530.859475  L 19.44 530.859475  L 20.912481 530.709996  L 22.384962 530.561037  L 23.857444 530.412605  L 25.329925 530.264708  L 26.802406 530.117353  L 28.274887 529.970549  L 29.747368 529.824301  L 31.21985 529.678619  L 32.692331 529.533508  L 34.164812 529.388976  L 35.637293 529.24503  L 37.109774 529.101678  L 38.582256 528.958927  L 40.054737 528.816784  L 41.527218 528.675257  L 42.999699 528.534351  L 44.47218 528.394075  L 45.944662 528.254435  L 47.417143 528.115438  L 48.889624 527.977092  L 50.362105 527.839403  L 51.834586 527.702378  L 53.307068 527.566024  L 54.779549 527.430349  L 56.25203 527.295358  L 57.724511 527.161058  L 59.196992 527.027457  L 60.669474 526.894561  L 62.141955 526.762377  L 63.614436 526.63091  L 65.086917 526.500169  L 66.559398 526.370159  L 68.03188 526.240887  L 69.504361 526.11236  L 70.976842 525.984584  L 72.449323 525.857565  L 73.921805 525.731309  L 75.394286 525.605824  L 76.866767 525.481115  L 78.339248 525.357189  L 79.811729 525.234051  L 81.284211 525.111709  L 82.756692 524.990168  L 84.229173 524.869434  L 85.701654 524.749513  L 87.174135 524.630412  L 88.646617 524.512137  L 90.119098 524.394692  L 91.591579 524.278085  L 93.06406 524.16232  L 94.536541 524.047405  L 96.009023 523.933344  L 97.481504 523.820144  L 98.953985 523.707809  L 100.426466 523.596347  L 101.898947 523.485761  L 103.371429 523.376059  L 104.84391 523.267244  L 106.316391 523.159324  L 107.788872 523.052303  L 109.261353 522.946186  L 110.733835 522.840979  L 112.206316 522.736688  L 113.678797 522.633317  L 115.151278 522.530871  L 116.623759 522.429357  L 118.096241 522.328778  L 119.568722 522.22914  L 121.041203 522.130448  L 122.513684 522.032707  L 123.986165 521.935922  L 125.458647 521.840098  L 126.931128 521.745239  L 128.403609 521.65135  L 129.87609 521.558436  L 131.348571 521.466502  L 132.821053 521.375552  L 134.293534 521.28559  L 135.766015 521.196622  L 137.238496 521.108652  L 138.710977 521.021684  L 140.183459 520.935723  L 141.65594 520.850773  L 143.128421 520.766837  L 144.600902 520.683921  L 146.073383 520.602029  L 147.545865 520.521164  L 149.018346 520.441331  L 150.490827 520.362533  L 151.963308 520.284776  L 153.435789 520.208062  L 154.908271 520.132395  L 156.380752 520.057779  L 157.853233 519.984219  L 159.325714 519.911717  L 160.798195 519.840277  L 162.270677 519.769904  L 163.743158 519.700599  L 165.215639 519.632368  L 166.68812 519.565213  L 168.160602 519.499138  L 169.633083 519.434146  L 171.105564 519.37024  L 172.578045 519.307423  L 174.050526 519.245699  L 175.523008 519.185071  L 176.995489 519.125542  L 178.46797 519.067114  L 179.940451 519.009791  L 181.412932 518.953576  L 182.885414 518.898471  L 184.357895 518.84448  L 185.830376 518.791604  L 187.302857 518.739847  L 188.775338 518.689211  L 190.24782 518.639699  L 191.720301 518.591313  L 193.192782 518.544055  L 194.665263 518.497928  L 196.137744 518.452935  L 197.610226 518.409078  L 199.082707 518.366358  L 200.555188 518.324778  L 202.027669 518.28434  L 203.50015 518.245046  L 204.972632 518.206898  L 206.445113 518.169897  L 207.917594 518.134047  L 209.390075 518.099348  L 210.862556 518.065803  L 212.335038 518.033413  L 213.807519 518.002179  L 215.28 517.972103  L 216.752481 517.943187  L 218.224962 517.915432  L 219.697444 517.88884  L 221.169925 517.863412  L 222.642406 517.839149  L 224.114887 517.816052  L 225.587368 517.794123  L 227.05985 517.773362  L 228.532331 517.753771  L 230.004812 517.735351  L 231.477293 517.718102  L 232.949774 517.702026  L 234.422256 517.687123  L 235.894737 517.673394  L 237.367218 517.66084  L 238.839699 517.649461  L 240.31218 517.639258  L 241.784662 517.630231  L 243.257143 517.622382  L 244.729624 517.615709  L 246.202105 517.610215  L 247.674586 517.605898  L 249.147068 517.602759  L 250.619549 517.600798  L 252.09203 517.600016  L 253.564511 517.600412  L 255.036992 517.601986  L 256.509474 517.604739  L 257.981955 517.60867  L 259.454436 517.613779  L 260.926917 517.620066  L 262.399398 517.62753  L 263.87188 517.636171  L 265.344361 517.645988  L 266.816842 517.656982  L 268.289323 517.669151  L 269.761805 517.682495  L 271.234286 517.697013  L 272.706767 517.712705  L 274.179248 517.72957  L 275.651729 517.747606  L 277.124211 517.766813  L 278.596692 517.787191  L 280.069173 517.808737  L 281.541654 517.831452  L 283.014135 517.855333  L 284.486617 517.880379  L 285.959098 517.90659  L 287.431579 517.933964  L 288.90406 517.9625  L 290.376541 517.992196  L 291.849023 518.02305  L 293.321504 518.055062  L 294.793985 518.088229  L 296.266466 518.12255  L 297.738947 518.158023  L 299.211429 518.194646  L 300.68391 518.232419  L 302.156391 518.271337  L 303.628872 518.311401  L 305.101353 518.352607  L 306.573835 518.394953  L 308.046316 518.438438  L 309.518797 518.48306  L 310.991278 518.528815  L 312.463759 518.575702  L 313.936241 518.623719  L 315.408722 518.672862  L 316.881203 518.723131  L 318.353684 518.774521  L 319.826165 518.82703  L 321.298647 518.880656  L 322.771128 518.935397  L 324.243609 518.991248  L 325.71609 519.048208  L 327.188571 519.106274  L 328.661053 519.165443  L 330.133534 519.225711  L 331.606015 519.287076  L 333.078496 519.349535  L 334.550977 519.413084  L 336.023459 519.477721  L 337.49594 519.543442  L 338.968421 519.610243  L 340.440902 519.678122  L 341.913383 519.747076  L 343.385865 519.817099  L 344.858346 519.88819  L 346.330827 519.960344  L 347.803308 520.033558  L 349.275789 520.107828  L 350.748271 520.183151  L 352.220752 520.259522  L 353.693233 520.336938  L 355.165714 520.415396  L 356.638195 520.49489  L 358.110677 520.575417  L 359.583158 520.656973  L 361.055639 520.739554  L 362.52812 520.823156  L 364.000602 520.907774  L 365.473083 520.993405  L 366.945564 521.080043  L 368.418045 521.167685  L 369.890526 521.256327  L 371.363008 521.345963  L 372.835489 521.43659  L 374.30797 521.528202  L 375.780451 521.620795  L 377.252932 521.714365  L 378.725414 521.808907  L 380.197895 521.904415  L 381.670376 522.000886  L 383.142857 522.098315  L 384.615338 522.196696  L 386.08782 522.296024  L 387.560301 522.396295  L 389.032782 522.497503  L 390.505263 522.599644  L 391.977744 522.702713  L 393.450226 522.806703  L 394.922707 522.91161  L 396.395188 523.01743  L 397.867669 523.124155  L 399.34015 523.231781  L 400.812632 523.340303  L 402.285113 523.449715  L 403.757594 523.560012  L 405.230075 523.671188  L 406.702556 523.783237  L 408.175038 523.896155  L 409.647519 524.009934  L 411.12 524.12457  L 412.592481 524.240057  L 414.064962 524.356389  L 415.537444 524.473559  L 417.009925 524.591563  L 418.482406 524.710395  L 419.954887 524.830048  L 421.427368 524.950516  L 422.89985 525.071793  L 424.372331 525.193873  L 425.844812 525.316751  L 427.317293 525.440419  L 428.789774 525.564872  L 430.262256 525.690104  L 431.734737 525.816108  L 433.207218 525.942877  L 434.679699 526.070406  L 436.15218 526.198688  L 437.624662 526.327717  L 439.097143 526.457485  L 440.569624 526.587988  L 442.042105 526.719217  L 443.514586 526.851167  L 444.987068 526.983831  L 446.459549 527.117202  L 447.93203 527.251273  L 449.404511 527.386038  L 450.876992 527.52149  L 452.349474 527.657622  L 453.821955 527.794428  L 455.294436 527.9319  L 456.766917 528.070032  L 458.239398 528.208816  L 459.71188 528.348246  L 461.184361 528.488314  L 462.656842 528.629014  L 464.129323 528.770339  L 465.601805 528.912281  L 467.074286 529.054834  L 468.546767 529.19799  L 470.019248 529.341742  L 471.491729 529.486082  L 472.964211 529.631004  L 474.436692 529.7765  L 475.909173 529.922564  L 477.381654 530.069186  L 478.854135 530.216361  L 480.326617 530.364081  L 481.799098 530.512339  L 483.271579 530.661126  L 484.74406 530.810436  L 486.216541 530.960261  L 487.689023 531.110593  L 489.161504 531.261425  L 490.633985 531.41275  L 492.106466 531.56456  L 493.578947 531.716846  L 495.051429 531.869602  L 496.52391 532.02282  L 497.996391 532.176493  L 499.468872 532.330611  L 500.941353 532.485168  L 502.413835 532.640156  L 503.886316 532.795568  L 505.358797 532.951394  L 506.831278 533.107628  L 508.303759 533.264262  L 509.776241 533.421288  L 511.248722 533.578697  L 512.721203 533.736483  L 514.193684 533.894637  L 515.666165 534.05315  L 517.138647 534.212016  L 518.611128 534.371226  L 520.083609 534.530773  L 521.55609 534.690647  L 523.028571 534.850842  L 524.501053 535.011349  L 525.973534 535.17216  L 527.446015 535.333267  L 528.918496 535.494662  L 530.390977 535.656336  L 531.863459 535.818283  L 533.33594 535.980493  L 534.808421 536.142958  L 536.280902 536.30567  L 537.753383 536.468622  L 539.225865 536.631805  L 540.698346 536.79521  L 542.170827 536.958829  L 543.643308 537.122655  L 545.115789 537.286679  L 546.588271 537.450893  L 548.060752 537.615289  L 549.533233 537.779857  L 551.005714 537.944591  L 552.478195 538.109482  L 553.950677 538.274521  L 555.423158 538.4397  L 556.895639 538.605011  L 558.36812 538.770446  L 559.840602 538.935996  L 561.313083 539.101653  L 562.785564 539.267409  L 564.258045 539.433255  L 565.730526 539.599183  L 567.203008 539.765185  L 568.675489 539.931252  L 570.14797 540.097376  L 571.620451 540.263549  L 573.092932 540.429762  L 574.565414 540.596007  L 576.037895 540.762276  L 577.510376 540.92856  L 578.982857 541.094851  L 580.455338 541.261141  L 581.92782 541.427421  L 583.400301 541.593682  L 584.872782 541.759918  L 586.345263 541.926118  L 587.817744 542.092275  L 589.290226 542.258381  L 590.762707 542.424427  L 592.235188 542.590405  L 593.707669 542.756306  L 595.18015 542.922123  L 596.652632 543.087846  L 598.125113 543.253468  L 599.597594 543.418979  L 601.070075 543.584373  L 602.542556 543.749641  L 604.015038 543.914773  L 605.487519 544.079763  L 606.96 544.244601  L 606.96 740.533333  L 19.44 740.533333  z "
           clip-path="url(#pbc7b771851)"
           style="fill: #efefef"
           id="path11" />
        <text
           xml:space="preserve"
           style="font-style:normal;font-weight:normal;font-size:20.46943092px;line-height:1.25;font-family:sans-serif;letter-spacing:0px;word-spacing:0px;fill:#000000;fill-opacity:1;stroke:none;stroke-width:0.5117358;stroke-linecap:butt;stroke-linejoin:round"
           x="217.36507"
           y="510.09476"
           id="text4789"><tspan
             sodipodi:role="line"
             id="tspan4787"
             style="stroke-width:0.5117358;stroke-linecap:butt;stroke-linejoin:round"
             x="217.36507"
             y="510.09476">接触点</tspan></text>
      </g>
      <g
         id="line2d_1"
         transform="translate(231.4983,4.0576271)"
         style="stroke-linecap:butt;stroke-linejoin:round">
        <path
           d="m 68.4,526.20876 v 14.08"
           clip-path="url(#pbc7b771851)"
           style="fill:none;stroke:#666666;stroke-width:1.79999995;stroke-linecap:square;stroke-linejoin:round"
           id="path14"
           inkscape:connector-curvature="0" />
      </g>
      <g
         id="line2d_2"
         transform="matrix(1.0136324,0,0,0.69223015,229.92518,170.01533)"
         style="stroke-linecap:butt;stroke-linejoin:round">
        <path
           d="M 68.4,540.28876 52.488,555.61988 84.312,570.951 52.488,586.28213 84.312,601.61325 52.488,616.94438 84.312,632.2755 52.488,647.60663 84.312,662.93775 52.488,678.26888 68.4,693.6"
           clip-path="url(#pbc7b771851)"
           style="fill:none;stroke:#666666;stroke-width:2.20000005;stroke-linecap:square;stroke-linejoin:round"
           id="path17"
           inkscape:connector-curvature="0" />
      </g>
      <g
         id="line2d_3"
         transform="translate(230.43051,-65.98983)"
         style="stroke-linecap:butt;stroke-linejoin:round">
        <path
           d="m 34.74,717.06667 h 67.32"
           clip-path="url(#pbc7b771851)"
           style="fill:none;stroke:#666666;stroke-width:2;stroke-linecap:square;stroke-linejoin:round"
           id="path20"
           inkscape:connector-curvature="0" />
      </g>
      <g
         id="line2d_4"
         transform="translate(241.16186,-64.708474)"
         style="stroke-linecap:butt;stroke-linejoin:round">
        <path
           d="m 34.74,727.62667 4.284,-10.56"
           clip-path="url(#pbc7b771851)"
           style="fill:none;stroke:#666666;stroke-width:1.20000005;stroke-linecap:square;stroke-linejoin:round"
           id="path23"
           inkscape:connector-curvature="0" />
      </g>
      <g
         id="line2d_5"
         transform="translate(220.66018,-64.655085)"
         style="stroke-linecap:butt;stroke-linejoin:round">
        <path
           d="m 44.94,727.62667 4.284,-10.56"
           clip-path="url(#pbc7b771851)"
           style="fill:none;stroke:#666666;stroke-width:1.20000005;stroke-linecap:square;stroke-linejoin:round"
           id="path26"
           inkscape:connector-curvature="0" />
      </g>
      <g
         id="line2d_6"
         transform="translate(230.64407,-64.655085)"
         style="stroke-linecap:butt;stroke-linejoin:round">
        <path
           d="m 55.14,727.62667 4.284,-10.56"
           clip-path="url(#pbc7b771851)"
           style="fill:none;stroke:#666666;stroke-width:1.20000005;stroke-linecap:square;stroke-linejoin:round"
           id="path29"
           inkscape:connector-curvature="0" />
      </g>
      <g
         id="line2d_7"
         transform="translate(230.05678,-64.655085)"
         style="stroke-linecap:butt;stroke-linejoin:round">
        <path
           d="m 65.34,727.62667 4.284,-10.56"
           clip-path="url(#pbc7b771851)"
           style="fill:none;stroke:#666666;stroke-width:1.20000005;stroke-linecap:square;stroke-linejoin:round"
           id="path32"
           inkscape:connector-curvature="0" />
      </g>
      <g
         id="line2d_8"
         transform="translate(229.97498,-64.639447)"
         style="stroke-linecap:butt;stroke-linejoin:round">
        <path
           d="m 75.54,727.62667 4.284,-10.56"
           clip-path="url(#pbc7b771851)"
           style="fill:none;stroke:#666666;stroke-width:1.20000005;stroke-linecap:square;stroke-linejoin:round"
           id="path35"
           inkscape:connector-curvature="0" />
      </g>
      <g
         id="line2d_9"
         transform="translate(229.52685,-64.6772)"
         style="stroke-linecap:butt;stroke-linejoin:round">
        <path
           d="m 85.74,727.62667 4.284,-10.56"
           clip-path="url(#pbc7b771851)"
           style="fill:none;stroke:#666666;stroke-width:1.20000005;stroke-linecap:square;stroke-linejoin:round"
           id="path38"
           inkscape:connector-curvature="0" />
      </g>
      <g
         id="line2d_10"
         transform="translate(229.74929,-64.6772)"
         style="stroke-linecap:butt;stroke-linejoin:round">
        <path
           d="m 95.94,727.62667 4.284,-10.56"
           clip-path="url(#pbc7b771851)"
           style="fill:none;stroke:#666666;stroke-width:1.20000005;stroke-linecap:square;stroke-linejoin:round"
           id="path41"
           inkscape:connector-curvature="0" />
      </g>
      <g
         id="line2d_11">
        <path
           d="M 19.44 530.859475  L 48.889624 527.977092  L 75.394286 525.605824  L 100.426466 523.596347  L 123.986165 521.935922  L 146.073383 520.602029  L 168.160602 519.499138  L 188.775338 518.689211  L 209.390075 518.099348  L 230.004812 517.735351  L 250.619549 517.600798  L 271.234286 517.697013  L 291.849023 518.02305  L 312.463759 518.575702  L 333.078496 519.349535  L 353.693233 520.336938  L 375.780451 521.620795  L 397.867669 523.124155  L 421.427368 524.950516  L 446.459549 527.117202  L 472.964211 529.631004  L 503.886316 532.795568  L 540.698346 536.79521  L 606.96 544.244601  L 606.96 544.244601  "
           clip-path="url(#pbc7b771851)"
           style="fill: none; stroke: #111111; stroke-width: 2.4; stroke-linecap: square"
           id="path44" />
      </g>
      <g
         id="line2d_16">
        <path
           d="M 129.6 148  L 203.04 218.4  "
           clip-path="url(#pbc7b771851)"
           style="fill: none; stroke: #555555; stroke-width: 24; stroke-linecap: round"
           id="path59" />
      </g>
      <g
         id="line2d_17">
        <path
           d="M 203.04 218.4  L 245.88 347.466667  "
           clip-path="url(#pbc7b771851)"
           style="fill: none; stroke: #555555; stroke-width: 28; stroke-linecap: round"
           id="path62" />
      </g>
      <g
         id="line2d_18">
        <path
           d="M 245.88 347.466667  L 264.24 423.733333  "
           clip-path="url(#pbc7b771851)"
           style="fill: none; stroke: #555555; stroke-width: 34; stroke-linecap: round"
           id="path65" />
      </g>
      <g
         id="line2d_19">
        <path
           d="M 264.24 423.733333  L 283.212 482.4  "
           clip-path="url(#pbc7b771851)"
           style="fill: none; stroke: #555555; stroke-width: 18; stroke-linecap: round"
           id="path68" />
      </g>
      <g
         id="line2d_20">
        <path
           d="M 283.212 482.4  L 291.168 512.906667  "
           clip-path="url(#pbc7b771851)"
           style="fill: none; stroke: #555555; stroke-width: 10; stroke-linecap: round"
           id="path71" />
      </g>
      <g
         id="line2d_21">
        <path
           d="M 291.168 512.906667  L 300.96 518.239716  "
           clip-path="url(#pbc7b771851)"
           style="fill: none; stroke: #555555; stroke-width: 6; stroke-linecap: round"
           id="path74" />
      </g>
      <g
         id="line2d_23">
        <path
           d="M 303.321472 436.137584  L 304.863893 436.173144  L 306.406613 436.198304  L 307.949631 436.213086  L 309.492947 436.217527  L 311.036559 436.211677  L 312.580465 436.1956  L 314.124662 436.169377  L 315.669149 436.133101  L 317.213922 436.08688  L 318.758978 436.030835  L 320.304312 435.965102  L 321.84992 435.889831  L 323.395798 435.805184  L 324.941941 435.711339  L 326.488343 435.608484  L 328.034998 435.496822  L 329.5819 435.376569  L 331.129043 435.247953  L 332.67642 435.111215  L 334.224022 434.966606  L 335.771844 434.814393  L 337.319876 434.65485  L 338.868111 434.488265  L 340.41654 434.314935  L 341.965154 434.135172  L 343.513944 433.949292  L 345.0629 433.757626  L 346.612013 433.560512  L 348.161273 433.3583  L 349.710669 433.151344  L 351.260191 432.940013  L 352.809828 432.724678  L 354.359569 432.505722  L 355.909403 432.283533  L 357.459319 432.058508  L 359.009305 431.831048  L 360.559349 431.601562  L 362.10944 431.370464  L 363.659564 431.138172  L 365.209711 430.905112  L 366.759868 430.671711  L 368.310022 430.4384  L 369.860161 430.205616  L 371.410272 429.973796  L 372.960343 429.743381  L 374.510361 429.514814  L 376.060313 429.288538  L 377.610186 429.064998  L 379.159967 428.84464  L 380.709644 428.627908  L 382.259205 428.415247  L 383.808635 428.207101  L 385.357923 428.003913  L 386.907055 427.806121  L 388.45602 427.614164  L 390.004804 427.428476  L 391.553396 427.249488  L 393.101782 427.077628  L 394.649952 426.913317  L 396.197892 426.756973  L 397.745592 426.609009  L 399.293038 426.469831  L 400.840221 426.339837  L 402.387128 426.219422  L 403.933748 426.108971  L 405.480071 426.008861  L 407.026086 425.919462  L 408.571782 425.841135  L 410.11715 425.774231  L 411.662179 425.719092  L 413.206861 425.67605  L 414.751185 425.645428  L 416.295143 425.627536  L 417.838727 425.622673  L 419.381927 425.631127  L 420.924736 425.653175  L 422.467147 425.68908  L 424.009152 425.739093  L 425.550744 425.803452  L 427.091918 425.882381  L 428.632666 425.97609  L 430.172983 426.084778  L 431.712864 426.208625  L 433.252305 426.347801  L 434.7913 426.502457  L 436.329846 426.672731  L 437.867939 426.858745  L 439.405577 427.060607  L 440.942756 427.278406  L 442.479474 427.512218  L 444.01573 427.762101  L 445.551523 428.028097  L 447.086851 428.310231  L 448.621716 428.608513  L 450.156116 428.922933  L 451.690052 429.253467  L 453.223526 429.600073  L 454.75654 429.962691  L 456.289095 430.341244  L 457.821195 430.735639  L 459.352842 431.145765  L 460.88404 431.571493  L 462.414794 432.012676  L 463.945108 432.469153  L 465.474988 432.940743  L 467.004438 433.427247  L 468.533466 433.928452  L 470.062077 434.444125  L 471.590279 434.974017  L 473.11808 435.517863  L 474.645488 436.075381  L 476.172511 436.646271  L 477.699159 437.230218  L 479.225441 437.82689  L 480.751366 438.43594  L 482.276946 439.057004  L 483.802192 439.689703  L 485.327114 440.333643  L 486.851724 440.988414  "
           clip-path="url(#pbc7b771851)"
           style="fill: none; stroke-dasharray: 9.6,7.2; stroke-dashoffset: 0; stroke: #1565c0; stroke-width: 2.4"
           id="path80" />
      </g>
      <g
         id="line2d_25">
        <path
           d="M 129.6 148  L 203.04 218.4  "
           clip-path="url(#pbc7b771851)"
           style="fill: none; stroke: #d8dde6; stroke-width: 18; stroke-linecap: round"
           id="path86" />
      </g>
      <g
         id="line2d_26">
        <path
           d="M 203.04 218.4  L 245.88 347.466667  "
           clip-path="url(#pbc7b771851)"
           style="fill: none; stroke: #d8dde6; stroke-width: 22; stroke-linecap: round"
           id="path89" />
      </g>
      <g
         id="line2d_27">
        <path
           d="M 245.88 347.466667  L 264.24 423.733333  "
           clip-path="url(#pbc7b771851)"
           style="fill: none; stroke: #9eb2c8; stroke-width: 28; stroke-linecap: round"
           id="path92" />
      </g>
      <g
         id="line2d_28">
        <path
           d="M 264.24 423.733333  L 283.212 482.4  "
           clip-path="url(#pbc7b771851)"
           style="fill: none; stroke: #c5cad1; stroke-width: 12; stroke-linecap: round"
           id="path95" />
      </g>
      <g
         id="line2d_29">
        <path
           d="M 283.212 482.4  L 291.168 512.906667  "
           clip-path="url(#pbc7b771851)"
           style="fill: none; stroke: #c5cad1; stroke-width: 6; stroke-linecap: round"
           id="path98" />
      </g>
      <g
         id="line2d_30">
        <path
           d="M 291.168 512.906667  L 300.96 518.239716  "
           clip-path="url(#pbc7b771851)"
           style="fill: none; stroke: #c5cad1; stroke-width: 3; stroke-linecap: round"
           id="path101" />
      </g>
      <g
         id="patch_3"
         style="stroke:#01a200;stroke-opacity:1">
        <path
           d="M 302.960268 518.292584  Q 435.54813 521.796972 565.00659 525.218648  "
           clip-path="url(#pbc7b771851)"
           style="fill:none;stroke:#01a200;stroke-width:2.8;stroke-linecap:round;stroke-opacity:1"
           id="path104" />
        <path
           d="M 558.693373 521.850668  L 565.00659 525.218648  L 558.524275 528.248433  z "
           clip-path="url(#pbc7b771851)"
           style="fill:#1565c0;stroke:#01a200;stroke-width:2.8;stroke-linecap:round;stroke-opacity:1"
           id="path106" />
      </g>
      <g
         id="patch_4"
         style="stroke:#01a200;stroke-opacity:1">
        <path
           d="M 301.017416 516.243502  Q 304.670882 389.222173 308.234345 265.330044  "
           clip-path="url(#pbc7b771851)"
           style="fill:none;stroke:#01a200;stroke-width:2.8;stroke-linecap:round;stroke-opacity:1"
           id="path109" />
        <path
           d="M 304.851663 271.635396  L 308.234345 265.330044  L 311.249017 271.819401  z "
           clip-path="url(#pbc7b771851)"
           style="fill:#f57c00;stroke:#01a200;stroke-width:2.8;stroke-linecap:round;stroke-opacity:1"
           id="path111" />
      </g>
      <g
         id="patch_5"
         transform="matrix(2.8844567,0,0,2.8844567,-901.22216,-981.22883)"
         style="stroke-linecap:butt;stroke-linejoin:round">
        <path
           d="m 482.96564,522.43578 q 0.76231,0.32738 1.52461,0.65477"
           clip-path="url(#pbc7b771851)"
           style="fill:none;stroke-linecap:butt;stroke-linejoin:round"
           id="path114"
           inkscape:connector-curvature="0" />
        <path
           d="m 480.44963,518.30793 4.04062,4.78262 -6.25046,0.36292 z"
           clip-path="url(#pbc7b771851)"
           style="fill:#1565c0;stroke-linecap:butt;stroke-linejoin:round"
           id="path116"
           inkscape:connector-curvature="0" />
      </g>
      <g
         id="patch_6">
        <path
           d="M 485.327114 440.333643  Q 486.089419 440.661029 486.851724 440.988414  "
           clip-path="url(#pbc7b771851)"
           style="fill: none"
           id="path119" />
        <path
           d="M 482.811105 436.2058  L 486.851724 440.988414  L 480.601262 441.351341  z "
           clip-path="url(#pbc7b771851)"
           style="fill: #1565c0"
           id="path121" />
      </g>
      <g
         id="patch_8">
        <path
           d="M 129.6 166.186667  C 134.631433 166.186667 139.457469 164.270405 143.01523 160.859915  C 146.57299 157.449426 148.572 152.82316 148.572 148  C 148.572 143.17684 146.57299 138.550574 143.01523 135.140085  C 139.457469 131.729595 134.631433 129.813333 129.6 129.813333  C 124.568567 129.813333 119.742531 131.729595 116.18477 135.140085  C 112.62701 138.550574 110.628 143.17684 110.628 148  C 110.628 152.82316 112.62701 157.449426 116.18477 160.859915  C 119.742531 164.270405 124.568567 166.186667 129.6 166.186667  z "
           clip-path="url(#pbc7b771851)"
           style="fill: #dfe5ec; stroke: #5a6470; stroke-width: 1.5; stroke-linejoin: miter"
           id="path127" />
      </g>
      <g
         id="patch_9">
        <path
           d="M 203.04 237.173333  C 208.233738 237.173333 213.215452 235.195257 216.887979 231.674751  C 220.560506 228.154246 222.624 223.378746 222.624 218.4  C 222.624 213.421254 220.560506 208.645754 216.887979 205.125249  C 213.215452 201.604743 208.233738 199.626667 203.04 199.626667  C 197.846262 199.626667 192.864548 201.604743 189.192021 205.125249  C 185.519494 208.645754 183.456 213.421254 183.456 218.4  C 183.456 223.378746 185.519494 228.154246 189.192021 231.674751  C 192.864548 235.195257 197.846262 237.173333 203.04 237.173333  z "
           clip-path="url(#pbc7b771851)"
           style="fill: #dfe5ec; stroke: #5a6470; stroke-width: 1.5; stroke-linejoin: miter"
           id="path130" />
      </g>
      <g
         id="patch_10">
        <path
           d="M 245.88 367.413333  C 251.398346 367.413333 256.691418 365.311627 260.593478 361.57109  C 264.495538 357.830553 266.688 352.756585 266.688 347.466667  C 266.688 342.176749 264.495538 337.10278 260.593478 333.362243  C 256.691418 329.621707 251.398346 327.52 245.88 327.52  C 240.361654 327.52 235.068582 329.621707 231.166522 333.362243  C 227.264462 337.10278 225.072 342.176749 225.072 347.466667  C 225.072 352.756585 227.264462 357.830553 231.166522 361.57109  C 235.068582 365.311627 240.361654 367.413333 245.88 367.413333  z "
           clip-path="url(#pbc7b771851)"
           style="fill: #dfe5ec; stroke: #5a6470; stroke-width: 1.5; stroke-linejoin: miter"
           id="path133" />
      </g>
      <g
         id="patch_11"
         style="fill:none;fill-opacity:1;stroke:#0003a2;stroke-opacity:1">
        <path
           d="M 301.01754 516.239207  Q 302.478089 465.45978 303.848634 417.809555  "
           clip-path="url(#pbc7b771851)"
           style="fill:none;stroke:#0003a2;stroke-width:2.8;stroke-linecap:round;fill-opacity:1;stroke-opacity:1"
           id="path136" />
        <path
           d="M 300.465953 424.114907  L 303.848634 417.809555  L 306.863307 424.298911  z "
           clip-path="url(#pbc7b771851)"
           style="fill:none;stroke:#0003a2;stroke-width:2.8;stroke-linecap:round;fill-opacity:1;stroke-opacity:1"
           id="path138" />
      </g>
      <g
         id="patch_12"
         transform="matrix(0.97819995,0,0,1.1654037,-117.4682,-81.391943)"
         style="stroke-linecap:butt;stroke-linejoin:round">
        <path
           d="m 484.75991,513.7151 q 0.91113,-31.67727 1.82225,-63.35454"
           clip-path="url(#pbc7b771851)"
           style="fill:none;stroke:#f57c00;stroke-width:2.4000001;stroke-linecap:round;stroke-linejoin:round"
           id="path141"
           inkscape:connector-curvature="0" />
        <path
           d="m 487.71976,508.19791 -2.95985,5.51719 -2.63783,-5.67819"
           clip-path="url(#pbc7b771851)"
           style="fill:none;stroke:#f57c00;stroke-width:2.4000001;stroke-linecap:round;stroke-linejoin:round"
           id="path143"
           inkscape:connector-curvature="0" />
        <path
           d="m 483.62231,455.87774 2.95985,-5.51718 2.63783,5.67818"
           clip-path="url(#pbc7b771851)"
           style="fill:none;stroke:#f57c00;stroke-width:2.4000001;stroke-linecap:round;stroke-linejoin:round"
           id="path145"
           inkscape:connector-curvature="0" />
      </g>
      <g
         id="patch_13"
         transform="matrix(1.4330899,0,0,0.9367413,-335.96451,21.0248)"
         style="stroke-linecap:butt;stroke-linejoin:round">
        <path
           d="m 447.48939,439.94804 q 14.89296,0.39363 29.78592,0.78726"
           clip-path="url(#pbc7b771851)"
           style="fill:none;stroke:#d62828;stroke-width:2.4000001;stroke-linecap:round;stroke-linejoin:round"
           id="path148"
           inkscape:connector-curvature="0" />
        <path
           d="m 453.01346,442.89502 -5.52407,-2.94698 5.67203,-2.65106"
           clip-path="url(#pbc7b771851)"
           style="fill:none;stroke:#d62828;stroke-width:2.4000001;stroke-linecap:round;stroke-linejoin:round"
           id="path150"
           inkscape:connector-curvature="0" />
        <path
           d="m 471.75125,437.78832 5.52406,2.94698 -5.67202,2.65107"
           clip-path="url(#pbc7b771851)"
           style="fill:none;stroke:#d62828;stroke-width:2.4000001;stroke-linecap:round;stroke-linejoin:round"
           id="path152"
           inkscape:connector-curvature="0" />
      </g>
      <g
         id="patch_15">
        <path
           d="M 129.6 155.04  C 131.547652 155.04 133.415795 154.298221 134.792992 152.978032  C 136.17019 151.657842 136.944 149.86703 136.944 148  C 136.944 146.13297 136.17019 144.342158 134.792992 143.021968  C 133.415795 141.701779 131.547652 140.96 129.6 140.96  C 127.652348 140.96 125.784205 141.701779 124.407008 143.021968  C 123.02981 144.342158 122.256 146.13297 122.256 148  C 122.256 149.86703 123.02981 151.657842 124.407008 152.978032  C 125.784205 154.298221 127.652348 155.04 129.6 155.04  z "
           clip-path="url(#pbc7b771851)"
           style="fill: #ffffff; stroke: #5a6470; stroke-linejoin: miter"
           id="path158" />
      </g>
      <g
         id="patch_16">
        <path
           d="M 203.04 225.44  C 204.987652 225.44 206.855795 224.698221 208.232992 223.378032  C 209.61019 222.057842 210.384 220.26703 210.384 218.4  C 210.384 216.53297 209.61019 214.742158 208.232992 213.421968  C 206.855795 212.101779 204.987652 211.36 203.04 211.36  C 201.092348 211.36 199.224205 212.101779 197.847008 213.421968  C 196.46981 214.742158 195.696 216.53297 195.696 218.4  C 195.696 220.26703 196.46981 222.057842 197.847008 223.378032  C 199.224205 224.698221 201.092348 225.44 203.04 225.44  z "
           clip-path="url(#pbc7b771851)"
           style="fill: #ffffff; stroke: #5a6470; stroke-linejoin: miter"
           id="path161" />
      </g>
      <g
         id="patch_17">
        <path
           d="M 245.88 354.506667  C 247.827652 354.506667 249.695795 353.764888 251.072992 352.444698  C 252.45019 351.124509 253.224 349.333696 253.224 347.466667  C 253.224 345.599637 252.45019 343.808824 251.072992 342.488635  C 249.695795 341.168445 247.827652 340.426667 245.88 340.426667  C 243.932348 340.426667 242.064205 341.168445 240.687008 342.488635  C 239.30981 343.808824 238.536 345.599637 238.536 347.466667  C 238.536 349.333696 239.30981 351.124509 240.687008 352.444698  C 242.064205 353.764888 243.932348 354.506667 245.88 354.506667  z "
           clip-path="url(#pbc7b771851)"
           style="fill: #ffffff; stroke: #5a6470; stroke-linejoin: miter"
           id="path164" />
      </g>
      <g
         id="patch_18">
        <path
           d="M 300.96 529.386382  C 304.043782 529.386382 307.001675 528.211899 309.182238 526.121599  C 311.362801 524.031299 312.588 521.195846 312.588 518.239716  C 312.588 515.283585 311.362801 512.448132 309.182238 510.357832  C 307.001675 508.267532 304.043782 507.093049 300.96 507.093049  C 297.876218 507.093049 294.918325 508.267532 292.737762 510.357832  C 290.557199 512.448132 289.332 515.283585 289.332 518.239716  C 289.332 521.195846 290.557199 524.031299 292.737762 526.121599  C 294.918325 528.211899 297.876218 529.386382 300.96 529.386382  z "
           clip-path="url(#pbc7b771851)"
           style="fill: #f5b300; stroke: #111111; stroke-width: 1.3; stroke-linejoin: miter"
           id="path167" />
      </g>
      <g
         id="text_2"
         transform="translate(223.59661,-46.342373)"
         style="stroke-linecap:butt;stroke-linejoin:round">
        <!-- $k_e$ -->
        <g
           style="fill:#111111;stroke-linecap:butt;stroke-linejoin:round"
           transform="matrix(0.2,0,0,-0.2,105.12,655.26875)"
           id="g192">
          <defs
             id="defs186">
            <path
               id="DejaVuSans-Oblique-6b"
               d="m 1172,4863 h 575 L 1197,2028 3169,3500 h 747 L 1716,1825 3322,0 H 2625 L 1131,1709 800,0 H 225 Z"
               transform="scale(0.015625)"
               inkscape:connector-curvature="0"
               style="stroke-linecap:butt;stroke-linejoin:round" />
            <path
               id="DejaVuSans-Oblique-65"
               d="m 3078,2063 q 10,50 14,103 5,53 5,106 0,381 -224,603 -223,222 -607,222 -428,0 -757,-271 -328,-270 -496,-767 z m 500,-450 H 903 q -19,-119 -25,-188 -6,-69 -6,-119 0,-434 267,-672 267,-237 755,-237 375,0 709,84 335,85 622,247 L 3116,159 Q 2806,34 2476,-28 2147,-91 1806,-91 1078,-91 686,257 294,606 294,1247 q 0,547 195,1017 195,470 574,839 243,231 579,356 336,125 714,125 594,0 945,-356 352,-356 352,-956 0,-144 -19,-308 -18,-164 -56,-351 z"
               transform="scale(0.015625)"
               inkscape:connector-curvature="0"
               style="stroke-linecap:butt;stroke-linejoin:round" />
          </defs>
          <use
             xlink:href="#DejaVuSans-Oblique-6b"
             transform="translate(0,0.015625)"
             id="use188"
             style="stroke-linecap:butt;stroke-linejoin:round"
             x="0"
             y="0"
             width="100%"
             height="100%" />
          <use
             xlink:href="#DejaVuSans-Oblique-65"
             transform="matrix(0.7,0,0,0.7,57.910156,-16.390625)"
             id="use190"
             style="stroke-linecap:butt;stroke-linejoin:round"
             x="0"
             y="0"
             width="100%"
             height="100%" />
        </g>
      </g>
      <g
         id="text_3"
         style="fill:#01a200;fill-opacity:1">
        <!-- t -->
        <g
           style="fill:#01a200;fill-opacity:1"
           transform="translate(581.153703 530.003225) scale(0.24 -0.24)"
           id="g200">
          <defs
             id="defs196">
            <path
               id="NotoSansCJKjp-Bold-74"
               d="M 1818 -90  C 2131 -90 2381 -13 2579 45  L 2419 730  C 2323 691 2182 653 2067 653  C 1747 653 1574 845 1574 1254  L 1574 2842  L 2464 2842  L 2464 3584  L 1574 3584  L 1574 4550  L 800 4550  L 691 3584  L 134 3539  L 134 2842  L 640 2842  L 640 1248  C 640 454 966 -90 1818 -90  z "
               transform="scale(0.015625)" />
          </defs>
          <use
             xlink:href="#NotoSansCJKjp-Bold-74"
             id="use198"
             style="fill:#01a200;fill-opacity:1" />
        </g>
      </g>
      <g
         id="text_4"
         style="stroke:none;stroke-opacity:1;fill:#01a200;fill-opacity:1">
        <!-- n -->
        <g
           style="fill:#01a200;stroke:none;stroke-opacity:1;fill-opacity:1"
           transform="translate(311.44177 258.40007) scale(0.24 -0.24)"
           id="g208">
          <defs
             id="defs204"
             style="stroke:url(#radialGradient4823)">
            <path
               id="NotoSansCJKjp-Bold-6e"
               d="M 506 0  L 1446 0  L 1446 2464  C 1709 2726 1901 2867 2189 2867  C 2541 2867 2694 2675 2694 2118  L 2694 0  L 3635 0  L 3635 2234  C 3635 3136 3302 3674 2528 3674  C 2042 3674 1677 3418 1363 3110  L 1344 3110  L 1274 3584  L 506 3584  L 506 0  z "
               transform="scale(0.015625)"
               style="stroke:url(#radialGradient4823)" />
          </defs>
          <use
             xlink:href="#NotoSansCJKjp-Bold-6e"
             id="use206"
             style="stroke:none;stroke-opacity:1;fill:#01a200;fill-opacity:1" />
        </g>
      </g>
      <g
         id="text_5"
         transform="translate(-0.90605546,16.00698)"
         style="stroke-linecap:butt;stroke-linejoin:round;stroke:#0003a2;stroke-opacity:1;fill:#1a00a2;fill-opacity:1">
        <!-- $f_{ext}$ -->
        <g
           style="fill:#1a00a2;stroke-linecap:butt;stroke-linejoin:round;stroke:#0003a2;stroke-opacity:1;fill-opacity:1"
           transform="matrix(0.22,0,0,-0.22,306.23772,461.06511)"
           id="g224">
          <defs
             id="defs214">
            <path
               id="DejaVuSans-Oblique-66"
               d="m 3059,4863 -90,-479 h -550 q -313,0 -455,-123 -142,-123 -211,-452 l -62,-309 h 947 l -85,-447 H 1606 L 1013,0 H 434 l 597,3053 H 481 l 82,447 h 550 l 46,244 q 119,619 417,869 299,250 940,250 z"
               transform="scale(0.015625)"
               inkscape:connector-curvature="0"
               style="stroke-linecap:butt;stroke-linejoin:round" />
            <path
               id="DejaVuSans-Oblique-78"
               d="M 3841,3500 2234,1784 3219,0 H 2559 L 1819,1388 531,0 H -166 L 1556,1844 641,3500 h 659 l 672,-1266 1172,1266 z"
               transform="scale(0.015625)"
               inkscape:connector-curvature="0"
               style="stroke-linecap:butt;stroke-linejoin:round" />
            <path
               id="DejaVuSans-Oblique-74"
               d="m 2706,3500 -87,-447 H 1472 L 1100,1153 q -19,-106 -28,-178 -9,-72 -9,-112 0,-200 120,-291 120,-91 386,-91 h 581 L 2053,0 H 1503 Q 991,0 739,200 488,400 488,806 q 0,72 9,158 9,86 28,189 L 897,3053 H 409 l 91,447 h 478 l 194,994 h 575 l -191,-994 z"
               transform="scale(0.015625)"
               inkscape:connector-curvature="0"
               style="stroke-linecap:butt;stroke-linejoin:round" />
          </defs>
          <use
             xlink:href="#DejaVuSans-Oblique-66"
             transform="translate(0,0.015625)"
             id="use216"
             style="stroke-linecap:butt;stroke-linejoin:round;stroke:#0003a2;stroke-opacity:1;fill:#1a00a2;fill-opacity:1"
             x="0"
             y="0"
             width="100%"
             height="100%" />
          <use
             xlink:href="#DejaVuSans-Oblique-65"
             transform="matrix(0.7,0,0,0.7,35.205078,-16.390625)"
             id="use218"
             style="stroke-linecap:butt;stroke-linejoin:round;stroke:#0003a2;stroke-opacity:1;fill:#1a00a2;fill-opacity:1"
             x="0"
             y="0"
             width="100%"
             height="100%" />
          <use
             xlink:href="#DejaVuSans-Oblique-78"
             transform="matrix(0.7,0,0,0.7,78.271484,-16.390625)"
             id="use220"
             style="stroke-linecap:butt;stroke-linejoin:round;stroke:#0003a2;stroke-opacity:1;fill:#1a00a2;fill-opacity:1"
             x="0"
             y="0"
             width="100%"
             height="100%" />
          <use
             xlink:href="#DejaVuSans-Oblique-74"
             transform="matrix(0.7,0,0,0.7,119.69727,-16.390625)"
             id="use222"
             style="stroke-linecap:butt;stroke-linejoin:round;stroke:#0003a2;stroke-opacity:1;fill:#1a00a2;fill-opacity:1"
             x="0"
             y="0"
             width="100%"
             height="100%" />
        </g>
      </g>
      <g
         id="text_6"
         transform="translate(-40.168459,-20.537257)"
         style="stroke-linecap:butt;stroke-linejoin:round">
        <!-- $x_t$ -->
        <g
           style="fill:#1565c0;stroke-linecap:butt;stroke-linejoin:round"
           transform="matrix(0.22,0,0,-0.22,495.50625,526.39284)"
           id="g231">
          <use
             xlink:href="#DejaVuSans-Oblique-78"
             transform="translate(0,0.3125)"
             id="use227"
             style="stroke-linecap:butt;stroke-linejoin:round"
             x="0"
             y="0"
             width="100%"
             height="100%" />
          <use
             xlink:href="#DejaVuSans-Oblique-74"
             transform="matrix(0.7,0,0,0.7,59.179688,-16.09375)"
             id="use229"
             style="stroke-linecap:butt;stroke-linejoin:round"
             x="0"
             y="0"
             width="100%"
             height="100%" />
        </g>
      </g>
      <g
         id="text_7"
         transform="translate(-138.9285,-31.711941)"
         style="stroke-linecap:butt;stroke-linejoin:round">
        <!-- $x_{d,t}$ -->
        <g
           style="fill:#1565c0;stroke-linecap:butt;stroke-linejoin:round"
           transform="matrix(0.22,0,0,-0.22,497.86772,443.83008)"
           id="g246">
          <defs
             id="defs236">
            <path
               id="DejaVuSans-Oblique-64"
               d="M 2675,525 Q 2444,222 2128,65 1813,-91 1428,-91 903,-91 598,267 294,625 294,1247 q 0,519 184,989 185,470 535,842 231,247 521,376 291,130 610,130 337,0 595,-163 258,-162 399,-465 l 375,1907 h 578 L 3144,0 H 2566 Z M 891,1350 q 0,-453 204,-706 205,-253 568,-253 268,0 498,129 230,130 405,383 184,263 290,606 107,344 107,679 0,434 -205,677 -205,244 -564,244 -272,0 -507,-128 Q 1453,2853 1288,2613 1106,2353 998,2009 891,1666 891,1350 Z"
               transform="scale(0.015625)"
               inkscape:connector-curvature="0"
               style="stroke-linecap:butt;stroke-linejoin:round" />
            <path
               id="DejaVuSans-2c"
               d="m 750,794 h 659 V 256 L 897,-744 H 494 L 750,256 Z"
               transform="scale(0.015625)"
               inkscape:connector-curvature="0"
               style="stroke-linecap:butt;stroke-linejoin:round" />
          </defs>
          <use
             xlink:href="#DejaVuSans-Oblique-78"
             transform="translate(0,0.3125)"
             id="use238"
             style="stroke-linecap:butt;stroke-linejoin:round"
             x="0"
             y="0"
             width="100%"
             height="100%" />
          <use
             xlink:href="#DejaVuSans-Oblique-64"
             transform="matrix(0.7,0,0,0.7,59.179688,-16.09375)"
             id="use240"
             style="stroke-linecap:butt;stroke-linejoin:round"
             x="0"
             y="0"
             width="100%"
             height="100%" />
          <use
             xlink:href="#DejaVuSans-2c"
             transform="matrix(0.7,0,0,0.7,103.61328,-16.09375)"
             id="use242"
             style="stroke-linecap:butt;stroke-linejoin:round"
             x="0"
             y="0"
             width="100%"
             height="100%" />
          <use
             xlink:href="#DejaVuSans-Oblique-74"
             transform="matrix(0.7,0,0,0.7,139.50195,-16.09375)"
             id="use244"
             style="stroke-linecap:butt;stroke-linejoin:round"
             x="0"
             y="0"
             width="100%"
             height="100%" />
        </g>
      </g>
      <g
         id="text_8"
         transform="translate(-101.17619,0.60403693)"
         style="stroke-linecap:butt;stroke-linejoin:round">
        <!-- $e_n$ -->
        <g
           style="fill:#f57c00;stroke-linecap:butt;stroke-linejoin:round"
           transform="matrix(0.22,0,0,-0.22,467.56099,485.34177)"
           id="g256">
          <defs
             id="defs250">
            <path
               id="DejaVuSans-Oblique-6e"
               d="M 3566,2113 3156,0 h -578 l 410,2091 q 28,147 43,259 16,113 16,178 0,263 -166,409 -165,147 -462,147 -463,0 -797,-308 -334,-307 -438,-835 L 800,0 H 225 l 678,3500 h 575 l -115,-550 q 240,303 577,468 338,166 710,166 463,0 717,-250 255,-250 255,-703 0,-112 -14,-240 -14,-128 -42,-278 z"
               transform="scale(0.015625)"
               inkscape:connector-curvature="0"
               style="stroke-linecap:butt;stroke-linejoin:round" />
          </defs>
          <use
             xlink:href="#DejaVuSans-Oblique-65"
             id="use252"
             style="stroke-linecap:butt;stroke-linejoin:round"
             x="0"
             y="0"
             width="100%"
             height="100%" />
          <use
             xlink:href="#DejaVuSans-Oblique-6e"
             transform="matrix(0.7,0,0,0.7,61.523438,-16.40625)"
             id="use254"
             style="stroke-linecap:butt;stroke-linejoin:round"
             x="0"
             y="0"
             width="100%"
             height="100%" />
        </g>
      </g>
      <g
         id="text_9"
         transform="translate(-133.49217,5.7383512)"
         style="stroke-linecap:butt;stroke-linejoin:round">
        <!-- $e_t$ -->
        <g
           style="fill:#d62828;stroke-linecap:butt;stroke-linejoin:round"
           transform="matrix(0.22,0,0,-0.22,452.26102,417.24393)"
           id="g263">
          <use
             xlink:href="#DejaVuSans-Oblique-65"
             id="use259"
             style="stroke-linecap:butt;stroke-linejoin:round"
             x="0"
             y="0"
             width="100%"
             height="100%" />
          <use
             xlink:href="#DejaVuSans-Oblique-74"
             transform="matrix(0.7,0,0,0.7,61.523438,-16.40625)"
             id="use261"
             style="stroke-linecap:butt;stroke-linejoin:round"
             x="0"
             y="0"
             width="100%"
             height="100%" />
        </g>
      </g>
      <ellipse
         style="stroke-width:0.74999994;stroke-linecap:butt;stroke-linejoin:round;fill:#1565c0;fill-opacity:1;stroke:#000000;stroke-opacity:1"
         id="path277"
         cx="358.64694"
         cy="432.50107"
         rx="9.5135822"
         ry="9.3625727" />
    </g>
  </g>
  <defs
     id="defs271">
    <clipPath
       id="pbc7b771851">
      <rect
         x="7.2"
         y="7.2"
         width="612"
         height="792"
         id="rect268" />
    </clipPath>
  </defs>
</svg>
